<?xml version="1.0" standalone="no"?>
<!DOCTYPE svg PUBLIC "-//W3C//DTD SVG 20010904//EN"
 "http://www.w3.org/TR/2001/REC-SVG-20010904/DTD/svg10.dtd">
<svg version="1.0" xmlns="http://www.w3.org/2000/svg"
 width="151.000000pt" height="151.000000pt" viewBox="0 0 151.000000 151.000000"
 preserveAspectRatio="xMidYMid meet">
<metadata>
Created by potrace 1.11, written by Peter Selinger 2001-2013
</metadata>
<g transform="translate(0.000000,151.000000) scale(0.100000,-0.100000)"
fill="#000000" stroke="none">
<path d="M680 1438 c-169 -18 -327 -101 -438 -232 -51 -60 -125 -208 -143
-286 -17 -77 -15 -232 5 -310 63 -249 269 -451 517 -506 59 -13 192 -16 255
-5 193 34 368 154 462 318 60 106 80 166 87 268 l5 60 -14 -70 c-42 -217 -220
-405 -436 -461 -56 -14 -61 -14 -84 3 -13 10 -24 29 -24 43 -4 80 -2 243 3
249 2 5 -2 17 -9 27 -9 12 -11 23 -5 30 4 6 10 32 12 58 4 45 14 60 59 86 9 5
19 23 23 40 7 30 13 34 48 31 9 -1 17 3 17 10 0 9 3 9 14 0 8 -7 39 -10 82 -7
59 3 71 8 91 31 13 14 21 31 17 36 -3 6 0 16 6 25 13 15 18 110 6 121 -4 4
-50 -3 -104 -15 -53 -12 -119 -22 -146 -22 l-49 0 6 41 c4 32 2 39 -9 35 -9
-3 -14 2 -15 14 -1 11 -2 26 -3 33 -1 6 -11 11 -24 9 -16 -2 -22 2 -22 16 0
16 15 26 65 44 36 12 65 25 65 28 0 3 -48 22 -107 41 l-108 35 -107 -35 c-60
-19 -108 -38 -108 -41 0 -3 29 -16 65 -28 50 -18 65 -28 65 -43 0 -13 -6 -19
-17 -17 -14 2 -18 -4 -18 -27 0 -26 -3 -30 -26 -28 -26 1 -27 0 -21 -39 l5
-41 -69 6 c-38 3 -85 11 -104 16 -64 20 -120 24 -121 9 -5 -61 -3 -84 8 -105
7 -14 11 -29 8 -33 -3 -5 5 -21 18 -35 20 -23 32 -28 91 -31 43 -3 74 0 82 7
11 9 14 9 14 0 0 -7 10 -11 22 -9 17 2 24 -5 35 -39 10 -29 19 -40 29 -36 9 3
14 -1 14 -12 0 -11 5 -15 14 -12 16 6 28 -15 31 -53 1 -14 5 -39 9 -57 4 -17
4 -33 -1 -36 -8 -5 -9 -114 -1 -123 3 -2 3 -30 1 -62 -3 -31 -5 -72 -6 -90 -2
-47 -32 -51 -114 -17 -134 58 -236 154 -304 290 -50 102 -68 185 -64 300 10
268 191 494 454 565 89 24 249 17 346 -15 16 -5 17 -5 4 4 -25 16 -159 49
-214 53 -27 2 -84 0 -125 -4z m28 -476 c2 -8 -5 -11 -20 -8 -12 3 -25 5 -28 5
-3 1 2 6 10 11 18 11 32 8 38 -8z m182 -3 c0 -5 -7 -9 -15 -9 -15 0 -20 12 -9
23 8 8 24 -1 24 -14z"/>
</g>
</svg>
